<mxfile host="app.diagrams.net" agent="Mozilla/5.0 (Macintosh; Intel Mac OS X 10_15_7) AppleWebKit/605.1.15 (KHTML, like Gecko) Version/17.6 Safari/605.1.15" version="24.7.16">
  <diagram name="Page-1" id="iq2eSf1pgx7EUJxFwR30">
    <mxGraphModel dx="2261" dy="830" grid="1" gridSize="10" guides="1" tooltips="1" connect="1" arrows="1" fold="1" page="1" pageScale="1" pageWidth="827" pageHeight="1169" math="0" shadow="0">
      <root>
        <mxCell id="0" />
        <mxCell id="1" parent="0" />
        <mxCell id="wPRBofjrvA-cmGmVY_lA-4" value="1C " style="swimlane;fillColor=#ffe6cc;strokeColor=#d79b00;" parent="1" vertex="1">
          <mxGeometry x="120" y="150" width="200" height="200" as="geometry" />
        </mxCell>
        <mxCell id="wPRBofjrvA-cmGmVY_lA-3" value="" style="shape=datastore;whiteSpace=wrap;html=1;" parent="wPRBofjrvA-cmGmVY_lA-4" vertex="1">
          <mxGeometry x="70" y="80" width="60" height="60" as="geometry" />
        </mxCell>
        <mxCell id="wPRBofjrvA-cmGmVY_lA-5" value="БД 1С для хранения данных" style="swimlane;fillColor=#ffe6cc;strokeColor=#d79b00;" parent="1" vertex="1">
          <mxGeometry x="590" y="450" width="200" height="200" as="geometry" />
        </mxCell>
        <mxCell id="wPRBofjrvA-cmGmVY_lA-2" value="" style="shape=datastore;whiteSpace=wrap;html=1;" parent="wPRBofjrvA-cmGmVY_lA-5" vertex="1">
          <mxGeometry x="70" y="70" width="60" height="60" as="geometry" />
        </mxCell>
        <mxCell id="XCgnc7OJGJPuYY6rxgUQ-10" style="edgeStyle=orthogonalEdgeStyle;rounded=0;orthogonalLoop=1;jettySize=auto;html=1;exitX=0;exitY=0.5;exitDx=0;exitDy=0;entryX=0.25;entryY=1;entryDx=0;entryDy=0;" edge="1" parent="1" source="wPRBofjrvA-cmGmVY_lA-6" target="wPRBofjrvA-cmGmVY_lA-4">
          <mxGeometry relative="1" as="geometry">
            <mxPoint x="130" y="350" as="targetPoint" />
          </mxGeometry>
        </mxCell>
        <mxCell id="wPRBofjrvA-cmGmVY_lA-6" value="База 1С для ритейла" style="swimlane;fillColor=#ffe6cc;strokeColor=#d79b00;" parent="1" vertex="1">
          <mxGeometry x="90" y="585" width="200" height="200" as="geometry" />
        </mxCell>
        <mxCell id="wPRBofjrvA-cmGmVY_lA-1" value="" style="shape=datastore;whiteSpace=wrap;html=1;" parent="wPRBofjrvA-cmGmVY_lA-6" vertex="1">
          <mxGeometry x="70" y="70" width="60" height="60" as="geometry" />
        </mxCell>
        <mxCell id="wPRBofjrvA-cmGmVY_lA-7" value="" style="endArrow=classic;html=1;rounded=0;exitX=1;exitY=1;exitDx=0;exitDy=0;entryX=0;entryY=0;entryDx=0;entryDy=0;" parent="1" source="wPRBofjrvA-cmGmVY_lA-4" target="wPRBofjrvA-cmGmVY_lA-5" edge="1">
          <mxGeometry width="50" height="50" relative="1" as="geometry">
            <mxPoint x="390" y="450" as="sourcePoint" />
            <mxPoint x="440" y="400" as="targetPoint" />
          </mxGeometry>
        </mxCell>
        <mxCell id="wPRBofjrvA-cmGmVY_lA-8" value="Обновление данных по ночам.&lt;div&gt;Возможно нужно, чтобы некоторые данные обновлялись в течение дня,&lt;/div&gt;&lt;div&gt;потому что бизнесу может потребоваться смотреть данные в реальном времени.&lt;/div&gt;" style="edgeLabel;html=1;align=center;verticalAlign=middle;resizable=0;points=[];" parent="wPRBofjrvA-cmGmVY_lA-7" vertex="1" connectable="0">
          <mxGeometry x="0.4264" y="1" relative="1" as="geometry">
            <mxPoint x="-108" y="-12" as="offset" />
          </mxGeometry>
        </mxCell>
        <mxCell id="wPRBofjrvA-cmGmVY_lA-9" value="Сервисы" style="swimlane;fontStyle=0;childLayout=stackLayout;horizontal=1;startSize=30;horizontalStack=0;resizeParent=1;resizeParentMax=0;resizeLast=0;collapsible=1;marginBottom=0;whiteSpace=wrap;html=1;fillColor=#dae8fc;strokeColor=#6c8ebf;" parent="1" vertex="1">
          <mxGeometry x="860" y="595" width="140" height="90" as="geometry" />
        </mxCell>
        <mxCell id="wPRBofjrvA-cmGmVY_lA-10" value="Визуализация данных" style="text;strokeColor=none;fillColor=none;align=left;verticalAlign=middle;spacingLeft=4;spacingRight=4;overflow=hidden;points=[[0,0.5],[1,0.5]];portConstraint=eastwest;rotatable=0;whiteSpace=wrap;html=1;" parent="wPRBofjrvA-cmGmVY_lA-9" vertex="1">
          <mxGeometry y="30" width="140" height="30" as="geometry" />
        </mxCell>
        <mxCell id="wPRBofjrvA-cmGmVY_lA-11" value="Отчеты 1С" style="text;strokeColor=none;fillColor=none;align=left;verticalAlign=middle;spacingLeft=4;spacingRight=4;overflow=hidden;points=[[0,0.5],[1,0.5]];portConstraint=eastwest;rotatable=0;whiteSpace=wrap;html=1;" parent="wPRBofjrvA-cmGmVY_lA-9" vertex="1">
          <mxGeometry y="60" width="140" height="30" as="geometry" />
        </mxCell>
        <mxCell id="wPRBofjrvA-cmGmVY_lA-13" style="edgeStyle=orthogonalEdgeStyle;rounded=0;orthogonalLoop=1;jettySize=auto;html=1;entryX=0.014;entryY=0.189;entryDx=0;entryDy=0;startArrow=classic;startFill=1;entryPerimeter=0;" parent="1" source="wPRBofjrvA-cmGmVY_lA-5" target="wPRBofjrvA-cmGmVY_lA-9" edge="1">
          <mxGeometry relative="1" as="geometry" />
        </mxCell>
        <mxCell id="wPRBofjrvA-cmGmVY_lA-14" value="Этим пользуется офис, тут не формируют отчеты.&lt;div&gt;Сюда сливаются все данные продаж со всех каналов.&lt;/div&gt;" style="shape=callout;whiteSpace=wrap;html=1;perimeter=calloutPerimeter;" parent="1" vertex="1">
          <mxGeometry x="170" y="20" width="280" height="120" as="geometry" />
        </mxCell>
        <mxCell id="wPRBofjrvA-cmGmVY_lA-15" value="Этим пользуются, чтобы формировать отчеты 1С и внешние ресурсы тоже отсюда берут информацию&amp;nbsp;" style="shape=callout;whiteSpace=wrap;html=1;perimeter=calloutPerimeter;" parent="1" vertex="1">
          <mxGeometry x="650" y="300" width="170" height="130" as="geometry" />
        </mxCell>
        <mxCell id="wPRBofjrvA-cmGmVY_lA-16" value="Этим пользуется ритейл." style="shape=callout;whiteSpace=wrap;html=1;perimeter=calloutPerimeter;" parent="1" vertex="1">
          <mxGeometry x="120" y="500" width="250" height="80" as="geometry" />
        </mxCell>
        <mxCell id="wPRBofjrvA-cmGmVY_lA-17" value="&lt;div style=&quot;text-align: left;&quot;&gt;Зачем эта схема.&lt;/div&gt;&lt;div style=&quot;text-align: left;&quot;&gt;&lt;ol&gt;&lt;li&gt;Чтобы не зависела работоспособность кросс-функций&lt;br&gt;&lt;/li&gt;&lt;li&gt;увеличилось быстродействие работы в 1С&amp;nbsp;&lt;/li&gt;&lt;li&gt;Снизить нагрузку с основной базы при выгрузке отчетов&lt;/li&gt;&lt;/ol&gt;&lt;/div&gt;" style="shape=document;whiteSpace=wrap;html=1;boundedLbl=1;fillColor=#d5e8d4;strokeColor=#82b366;" parent="1" vertex="1">
          <mxGeometry x="600" y="20" width="190" height="250" as="geometry" />
        </mxCell>
        <mxCell id="XCgnc7OJGJPuYY6rxgUQ-1" value="Данные по продажам (сайт)" style="rounded=1;whiteSpace=wrap;html=1;" vertex="1" parent="1">
          <mxGeometry x="-120" y="100" width="120" height="60" as="geometry" />
        </mxCell>
        <mxCell id="XCgnc7OJGJPuYY6rxgUQ-2" style="edgeStyle=orthogonalEdgeStyle;rounded=0;orthogonalLoop=1;jettySize=auto;html=1;entryX=0;entryY=0;entryDx=0;entryDy=0;" edge="1" parent="1" source="XCgnc7OJGJPuYY6rxgUQ-1" target="wPRBofjrvA-cmGmVY_lA-4">
          <mxGeometry relative="1" as="geometry">
            <mxPoint x="100" y="171" as="targetPoint" />
          </mxGeometry>
        </mxCell>
        <mxCell id="XCgnc7OJGJPuYY6rxgUQ-5" style="edgeStyle=orthogonalEdgeStyle;rounded=0;orthogonalLoop=1;jettySize=auto;html=1;exitX=1;exitY=0.5;exitDx=0;exitDy=0;entryX=0;entryY=0.25;entryDx=0;entryDy=0;" edge="1" parent="1" source="XCgnc7OJGJPuYY6rxgUQ-3" target="wPRBofjrvA-cmGmVY_lA-4">
          <mxGeometry relative="1" as="geometry">
            <mxPoint x="100" y="190" as="targetPoint" />
          </mxGeometry>
        </mxCell>
        <mxCell id="XCgnc7OJGJPuYY6rxgUQ-3" value="Данные КЦ (продажи, статистика по операторам/звонкам)" style="rounded=1;whiteSpace=wrap;html=1;" vertex="1" parent="1">
          <mxGeometry x="-120" y="180" width="120" height="100" as="geometry" />
        </mxCell>
        <mxCell id="XCgnc7OJGJPuYY6rxgUQ-8" style="edgeStyle=orthogonalEdgeStyle;rounded=0;orthogonalLoop=1;jettySize=auto;html=1;entryX=0;entryY=0.75;entryDx=0;entryDy=0;" edge="1" parent="1" source="XCgnc7OJGJPuYY6rxgUQ-4" target="wPRBofjrvA-cmGmVY_lA-4">
          <mxGeometry relative="1" as="geometry" />
        </mxCell>
        <mxCell id="XCgnc7OJGJPuYY6rxgUQ-4" value="Данные маркетплейс" style="rounded=1;whiteSpace=wrap;html=1;" vertex="1" parent="1">
          <mxGeometry x="-120" y="300" width="120" height="60" as="geometry" />
        </mxCell>
      </root>
    </mxGraphModel>
  </diagram>
</mxfile>
